<svg xmlns="http://www.w3.org/2000/svg" viewBox="0 0 100 100" style="display: none;">
  <defs>
    <!-- Corazón -->
    <symbol id="heart" viewBox="0 0 24 24">
      <path d="M12 21.35l-1.45-1.32C5.4 15.36 2 12.28 2 8.5 2 5.42 4.42 3 7.5 3c1.74 0 3.41.81 4.5 2.09C13.09 3.81 14.76 3 16.5 3 19.58 3 22 5.42 22 8.5c0 3.78-3.4 6.86-8.55 11.54L12 21.35z"/>
    </symbol>
    
    <!-- Estrella -->
    <symbol id="star" viewBox="0 0 24 24">
      <path d="M12 2l3.09 6.26L22 9.27l-5 4.87 1.18 6.88L12 17.77l-6.18 3.25L7 14.14 2 9.27l6.91-1.01L12 2z"/>
    </symbol>
    
    <!-- Sparkle -->
    <symbol id="sparkle" viewBox="0 0 24 24">
      <path d="M12 2l1.09 2.26L16 3.27l-1.91 1.91 1.91 1.91L13.09 7.74 12 10l-1.09-2.26L8 7.09l1.91-1.91L8 3.27l2.91 1.99L12 2z"/>
      <path d="M19 12l1.09 2.26L23 13.27l-1.91 1.91 1.91 1.91L20.09 17.74 19 20l-1.09-2.26L15 17.09l1.91-1.91L15 13.27l2.91 1.99L19 12z"/>
      <path d="M5 12l1.09 2.26L9 13.27l-1.91 1.91 1.91 1.91L6.09 17.74 5 20l-1.09-2.26L1 17.09l1.91-1.91L1 13.27l2.91 1.99L5 12z"/>
    </symbol>
  </defs>
</svg>
